<?xml version="1.0" encoding="utf-8"?>
<!-- Generator: Adobe Illustrator 16.0.0, SVG Export Plug-In . SVG Version: 6.00 Build 0)  -->
<!DOCTYPE svg PUBLIC "-//W3C//DTD SVG 1.1//EN" "http://www.w3.org/Graphics/SVG/1.1/DTD/svg11.dtd">
<svg version="1.1" id="Capa_1" xmlns="http://www.w3.org/2000/svg" xmlns:xlink="http://www.w3.org/1999/xlink" x="0px" y="0px"
	 width="512px" height="512px" viewBox="0 0 512 512" enable-background="new 0 0 512 512" xml:space="preserve">
<path fill="#FFFFFF" d="M432,117.75h-45.639l-17.222-34.443c-13.64-27.278-41.058-44.223-71.556-44.223h-83.169
	c-30.498,0-57.916,16.944-71.555,44.223l-17.222,34.443H80c-44.111,0-80,35.888-80,80v195.167c0,44.111,35.889,79.999,80,79.999h352
	c44.112,0,80-35.888,80-79.999V197.75C512,153.637,476.112,117.75,432,117.75z M472,392.917c0,22.056-17.943,39.999-40,39.999H80
	c-22.056,0-40-17.943-40-39.999V197.75c0-22.057,17.944-40,40-40h58c7.576,0,14.5-4.28,17.89-11.057l22.75-45.499
	c6.818-13.639,20.527-22.111,35.776-22.111h83.169c15.25,0,28.959,8.473,35.777,22.111l22.75,45.499
	c3.389,6.776,10.313,11.057,17.889,11.057h58c22.056,0,40,17.943,40,40L472,392.917z M256,176.417
	c-54.404,0-98.667,44.262-98.667,98.667c0,54.404,44.263,98.667,98.667,98.667c54.405,0,98.668-44.263,98.668-98.667
	C354.668,220.678,310.405,176.417,256,176.417z M256,333.75c-32.349,0-58.667-26.318-58.667-58.667
	c0-32.35,26.318-58.667,58.667-58.667c32.35,0,58.668,26.317,58.668,58.667C314.668,307.432,288.349,333.75,256,333.75z"/>
</svg>
