<?xml version="1.0" encoding="utf-8"?>
<!-- Generator: Adobe Illustrator 16.0.0, SVG Export Plug-In . SVG Version: 6.00 Build 0)  -->
<!DOCTYPE svg PUBLIC "-//W3C//DTD SVG 1.1//EN" "http://www.w3.org/Graphics/SVG/1.1/DTD/svg11.dtd">
<svg version="1.1" id="Capa_1" xmlns="http://www.w3.org/2000/svg" xmlns:xlink="http://www.w3.org/1999/xlink" x="0px" y="0px"
	 width="425.201px" height="425.199px" viewBox="0 0 425.201 425.199" enable-background="new 0 0 425.201 425.199"
	 xml:space="preserve">
<g>
	<g>
		<path fill="#68A19B" d="M421.82,96.231c-3.011-3.854-7.629-6.102-12.522-6.102H98.178L83.864,30.235
			c-1.713-7.156-8.112-12.209-15.471-12.209H15.905C7.121,18.025,0,25.145,0,33.93c0,8.784,7.121,15.905,15.905,15.905h39.934
			l51.692,216.291c1.712,7.163,8.111,12.21,15.471,12.21h247.594c7.312,0,13.684-4.984,15.438-12.078l38.703-156.402
			C425.908,105.107,424.832,100.085,421.82,96.231z M358.151,246.527H135.555L105.781,121.94h283.194L358.151,246.527z"/>
	</g>
</g>
<path fill="#68A19B" d="M159.21,321.806c-17.842,0-32.352,14.511-32.352,32.352c0,17.836,14.516,32.347,32.352,32.347
	s32.352-14.511,32.352-32.347C191.562,336.317,177.046,321.806,159.21,321.806z"/>
<path fill="#68A19B" d="M336.21,321.806c-17.842,0-32.352,14.511-32.352,32.352c0,17.836,14.516,32.347,32.352,32.347
	s32.353-14.511,32.353-32.347C368.562,336.317,354.046,321.806,336.21,321.806z"/>
</svg>
