<?xml version="1.0" encoding="utf-8"?>
<!-- Generator: Adobe Illustrator 16.0.0, SVG Export Plug-In . SVG Version: 6.00 Build 0)  -->
<!DOCTYPE svg PUBLIC "-//W3C//DTD SVG 1.1//EN" "http://www.w3.org/Graphics/SVG/1.1/DTD/svg11.dtd">
<svg version="1.1" id="Capa_1" xmlns="http://www.w3.org/2000/svg" xmlns:xlink="http://www.w3.org/1999/xlink" x="0px" y="0px"
	 width="425.201px" height="425.199px" viewBox="0 0 425.201 425.199" enable-background="new 0 0 425.201 425.199"
	 xml:space="preserve">
<g>
	<g>
		<g>
			<path fill="#FFFFFF" d="M394.553,356.666c0,11.583-4.826,22.201-12.549,29.923c-7.722,7.723-18.34,12.549-29.923,12.549h-64.19
				v26.062h64.673c18.822-0.482,35.715-8.204,48.264-20.753c12.548-12.548,19.787-29.44,19.787-48.263V287.65h-26.062V356.666z"/>
			<path fill="#FFFFFF" d="M420.615,68.051c0-18.822-7.722-35.715-19.787-48.263C388.279,7.24,371.386,0,352.564,0h-64.673v26.062
				h64.673c11.583,0,22.201,4.827,29.923,12.549c7.723,7.723,12.549,18.34,12.549,29.923v69.018h26.063v-69.5H420.615z"/>
			<path fill="#FFFFFF" d="M42.713,386.107c-7.722-7.722-12.548-18.34-12.548-29.923V287.65H4.102v69.017
				c0,18.822,7.723,35.715,19.788,48.263c13.031,12.066,29.923,19.788,48.746,19.788h64.673v-26.062H72.636
				C61.053,398.656,50.435,393.829,42.713,386.107z"/>
			<path fill="#FFFFFF" d="M30.647,68.051c0-11.583,4.826-22.201,12.549-29.923c7.722-7.723,18.34-12.549,29.923-12.549h64.673V0
				H72.636C53.813,0,36.922,7.722,24.373,19.788C11.825,32.336,4.585,49.229,4.585,68.051v69.017h26.063V68.051z"/>
			<path fill="#FFFFFF" d="M303.336,322.4c7.239,0,13.031-5.792,13.031-13.031c0-28.476-11.584-54.538-30.406-73.36
				c-8.688-8.688-19.306-15.927-30.406-20.754c0.965-0.965,1.931-1.447,2.896-2.413c11.584-11.583,18.823-27.992,18.823-45.85
				s-7.239-34.268-18.823-45.851c-11.583-11.583-27.992-18.822-45.85-18.822s-34.268,7.239-45.851,18.822
				s-18.822,27.993-18.822,45.851s7.239,34.267,18.822,45.85c0.966,0.966,1.931,1.448,2.896,2.413
				c-11.583,5.31-21.718,12.066-30.405,20.754c-18.823,18.822-30.406,44.885-30.406,73.36c0,7.239,5.792,13.031,13.031,13.031
				s13.031-5.792,13.031-13.031c0-21.236,8.688-41.024,22.684-55.021s33.784-22.684,55.021-22.684
				c21.235,0,41.023,8.688,55.02,22.684c13.997,13.996,22.685,33.302,22.685,55.021C290.304,316.608,296.095,322.4,303.336,322.4z
				 M240.11,194.501c-7.239,7.239-16.892,11.583-27.51,11.583s-20.271-4.344-27.511-11.583c-7.239-7.239-11.583-16.892-11.583-27.51
				s4.344-20.271,11.583-27.511c7.24-7.239,16.893-11.583,27.511-11.583s20.271,4.344,27.51,11.583
				c7.239,7.24,11.583,16.893,11.583,27.511S247.349,187.262,240.11,194.501z"/>
		</g>
	</g>
</g>
</svg>
