<?xml version="1.0" encoding="utf-8"?>
<!-- Generator: Adobe Illustrator 16.0.0, SVG Export Plug-In . SVG Version: 6.00 Build 0)  -->
<!DOCTYPE svg PUBLIC "-//W3C//DTD SVG 1.1//EN" "http://www.w3.org/Graphics/SVG/1.1/DTD/svg11.dtd">
<svg version="1.1" id="Layer_1" xmlns="http://www.w3.org/2000/svg" xmlns:xlink="http://www.w3.org/1999/xlink" x="0px" y="0px"
	 width="100px" height="100px" viewBox="0 0 100 100" enable-background="new 0 0 100 100" xml:space="preserve">
<g>
	<defs>
		<rect id="SVGID_1_" width="100" height="100"/>
	</defs>
	<clipPath id="SVGID_2_">
		<use xlink:href="#SVGID_1_"  overflow="visible"/>
	</clipPath>
	<path clip-path="url(#SVGID_2_)" fill="#68A19B" d="M95.143,49.056L51.707,4.688c-0.551-0.563-1.318-0.887-2.106-0.887
		c-0.787,0-1.556,0.323-2.106,0.885l-15.094,15.42v-7.005c0-1.625-1.323-2.947-2.949-2.947h-8.514c-1.625,0-2.947,1.322-2.947,2.947
		v21.723L4.058,49.056c-0.832,0.851-1.072,2.109-0.61,3.204c0.461,1.097,1.527,1.805,2.717,1.805H16.73v39.359
		c0,1.625,1.322,2.946,2.948,2.946h20.12c1.625,0,2.947-1.321,2.947-2.946V79.235c0-3.779,3.075-6.855,6.855-6.855
		c3.78,0,6.856,3.076,6.856,6.855v14.188c0,1.625,1.322,2.946,2.947,2.946h20.121c1.625,0,2.947-1.321,2.947-2.946V54.064h10.564
		c1.19,0,2.256-0.708,2.718-1.805C96.215,51.164,95.975,49.906,95.143,49.056 M49.6,66.485c-7.029,0-12.748,5.721-12.748,12.75
		v11.242H22.624V51.118c0-1.625-1.322-2.947-2.946-2.947h-6.505l36.428-37.21l36.428,37.21h-6.504c-1.626,0-2.947,1.322-2.947,2.947
		v39.359H62.35V79.235C62.35,72.206,56.63,66.485,49.6,66.485 M23.885,28.778V16.047h2.621v10.041L23.885,28.778z"/>
</g>
</svg>
