<?xml version="1.0" encoding="utf-8"?>
<!-- Generator: Adobe Illustrator 16.0.0, SVG Export Plug-In . SVG Version: 6.00 Build 0)  -->
<!DOCTYPE svg PUBLIC "-//W3C//DTD SVG 1.1//EN" "http://www.w3.org/Graphics/SVG/1.1/DTD/svg11.dtd">
<svg version="1.1" id="Layer_1" xmlns="http://www.w3.org/2000/svg" xmlns:xlink="http://www.w3.org/1999/xlink" x="0px" y="0px"
	 width="512px" height="512px" viewBox="0 0 512 512" enable-background="new 0 0 512 512" xml:space="preserve">
<g id="Solid">
	<path fill="#FFFFFF" d="M239.029,384.97c9.372,9.373,24.568,9.373,33.941,0.001c0,0,0-0.001,0.001-0.001l90.509-90.509
		c9.372-9.373,9.372-24.568,0-33.941c-9.372-9.372-24.568-9.372-33.941,0L280,310.059V48c0-13.255-10.745-24-24-24s-24,10.745-24,24
		v262.059l-49.539-49.539c-9.372-9.372-24.568-9.372-33.94,0c-9.373,9.373-9.373,24.568,0,33.941L239.029,384.97z"/>
	<path fill="#FFFFFF" d="M464,232c-13.254,0-24,10.745-24,24v184H72V256c0-13.255-10.745-24-24-24s-24,10.745-24,24v192
		c0,22.091,17.909,40,40,40h384c22.092,0,40-17.909,40-40V256C488,242.745,477.255,232,464,232z"/>
</g>
</svg>
