<?xml version="1.0" encoding="utf-8"?>
<!-- Generator: Adobe Illustrator 16.0.0, SVG Export Plug-In . SVG Version: 6.00 Build 0)  -->
<!DOCTYPE svg PUBLIC "-//W3C//DTD SVG 1.1//EN" "http://www.w3.org/Graphics/SVG/1.1/DTD/svg11.dtd">
<svg version="1.1" id="Layer_1" xmlns="http://www.w3.org/2000/svg" xmlns:xlink="http://www.w3.org/1999/xlink" x="0px" y="0px"
	 width="512px" height="512px" viewBox="0 0 512 512" enable-background="new 0 0 512 512" xml:space="preserve">
<path fill="#FFFFFF" d="M453.332,85.332c0,38.293-31.039,69.336-69.332,69.336s-69.332-31.043-69.332-69.336
	C314.668,47.043,345.707,16,384,16S453.332,47.043,453.332,85.332z"/>
<path fill="#FFFFFF" d="M384,170.668c-47.063,0-85.332-38.273-85.332-85.336C298.668,38.274,336.937,0,384,0
	s85.332,38.273,85.332,85.332C469.332,132.395,431.062,170.668,384,170.668z M384,32c-29.418,0-53.332,23.938-53.332,53.332
	c0,29.398,23.914,53.336,53.332,53.336s53.332-23.938,53.332-53.336C437.332,55.938,413.418,32,384,32z"/>
<path fill="#FFFFFF" d="M453.332,426.668C453.332,464.957,422.293,496,384,496s-69.332-31.043-69.332-69.332
	c0-38.293,31.039-69.336,69.332-69.336S453.332,388.375,453.332,426.668z"/>
<path fill="#FFFFFF" d="M384,512c-47.063,0-85.332-38.273-85.332-85.332c0-47.063,38.27-85.336,85.332-85.336
	s85.332,38.273,85.332,85.336C469.332,473.727,431.062,512,384,512z M384,373.332c-29.418,0-53.332,23.938-53.332,53.336
	C330.668,456.063,354.582,480,384,480s53.332-23.938,53.332-53.332C437.332,397.27,413.418,373.332,384,373.332z"/>
<path fill="#FFFFFF" d="M154.668,256c0,38.293-31.043,69.332-69.336,69.332C47.043,325.332,16,294.293,16,256
	s31.043-69.332,69.332-69.332C123.625,186.668,154.668,217.707,154.668,256z"/>
<path fill="#FFFFFF" d="M85.332,341.332C38.273,341.332,0,303.063,0,256s38.273-85.332,85.332-85.332
	c47.063,0,85.336,38.27,85.336,85.332S132.394,341.332,85.332,341.332z M85.332,202.668C55.914,202.668,32,226.602,32,256
	s23.914,53.332,53.332,53.332c29.422,0,53.336-23.934,53.336-53.332S114.754,202.668,85.332,202.668z"/>
<path fill="#FFFFFF" d="M135.703,245.762c-7.426,0-14.637-3.863-18.563-10.773c-5.824-10.219-2.238-23.254,7.98-29.102
	L323.07,93.035c10.219-5.867,23.254-2.281,29.102,7.977c5.824,10.219,2.238,23.254-7.98,29.102L146.238,242.965
	C142.91,244.864,139.285,245.762,135.703,245.762z"/>
<path fill="#FFFFFF" d="M333.633,421.762c-3.586,0-7.211-0.898-10.539-2.797L125.14,306.114
	c-10.219-5.824-13.801-18.859-7.977-29.102c5.801-10.238,18.855-13.844,29.098-7.977l197.953,112.852
	c10.219,5.824,13.801,18.859,7.977,29.102C348.246,417.899,341.035,421.762,333.633,421.762z"/>
</svg>
