<?xml version="1.0" encoding="utf-8"?>
<!-- Generator: Adobe Illustrator 16.0.0, SVG Export Plug-In . SVG Version: 6.00 Build 0)  -->
<!DOCTYPE svg PUBLIC "-//W3C//DTD SVG 1.1//EN" "http://www.w3.org/Graphics/SVG/1.1/DTD/svg11.dtd">
<svg version="1.1" id="Capa_1" xmlns="http://www.w3.org/2000/svg" xmlns:xlink="http://www.w3.org/1999/xlink" x="0px" y="0px"
	 width="425.201px" height="425.199px" viewBox="0 0 425.201 425.199" enable-background="new 0 0 425.201 425.199"
	 xml:space="preserve">
<g>
	<g>
		<g>
			<circle fill="#FFFFFF" cx="160.261" cy="146.467" r="29.212"/>
			<path fill="#FFFFFF" d="M400.046,253.984c-13.795-12.982-31.241-21.503-50.311-23.938V81.551
				c0-15.823-6.491-30.024-16.635-40.573c-10.549-10.549-24.749-16.635-40.572-16.635H57.207c-15.823,0-30.023,6.492-40.572,16.635
				C6.086,51.527,0,65.728,0,81.551V268.59v17.446v37.732c0,15.823,6.492,30.023,16.635,40.572
				c10.549,10.549,24.749,16.635,40.572,16.635h227.612c15.012,12.172,33.676,19.881,54.367,19.881
				c23.938,0,45.441-9.737,60.859-25.155c15.417-15.417,25.155-36.921,25.155-60.858S415.463,269.402,400.046,253.984z
				 M21.504,81.551c0-9.737,4.057-18.664,10.549-24.749c6.491-6.492,15.417-10.55,25.154-10.55h235.321
				c9.737,0,18.663,4.058,25.155,10.55c6.491,6.491,10.549,15.417,10.549,25.154v126.587l-60.048-60.048
				c-4.058-4.058-10.954-4.463-15.417,0l-90.478,90.883l-61.265-61.671c-4.057-4.057-10.954-4.463-15.417,0l-64.104,64.916V81.551z
				 M56.802,360.284v-0.812c-9.737,0-18.663-4.058-25.155-10.549c-6.086-6.492-10.143-15.418-10.143-25.155v-37.732v-12.577
				l71.813-72.22l61.265,61.265c4.057,4.058,10.954,4.058,15.417,0l90.477-90.883l59.236,59.643
				c-1.217,0.405-2.435,0.811-3.651,1.217c-1.623,0.405-3.246,0.812-5.274,1.623c-1.623,0.405-3.246,1.217-4.869,1.623
				c-1.217,0.405-2.028,0.812-3.246,1.622c-1.622,0.812-2.84,1.218-4.057,2.029c-2.029,1.217-4.058,2.435-6.086,3.651
				c-1.218,0.812-2.028,1.217-3.246,2.028c-0.812,0.406-1.217,0.812-2.028,1.218c-3.651,2.434-6.897,5.274-9.737,8.52
				c-15.418,15.418-25.155,36.921-25.155,60.859c0,6.086,0.812,11.766,2.028,17.852c0.406,1.623,0.812,2.84,1.218,4.463
				c1.217,4.058,2.435,8.115,4.057,12.172v0.406c1.623,3.245,3.246,6.896,5.274,9.737H56.802z M384.222,360.284
				c-11.767,11.766-27.59,18.663-45.441,18.663c-17.041,0-32.864-6.897-44.225-17.852c-1.623-1.623-3.245-3.652-4.868-5.274
				c-1.218-1.218-2.435-2.841-3.651-4.058c-1.623-2.028-2.841-4.463-4.058-6.897c-0.812-1.623-1.623-2.84-2.435-4.463
				c-0.812-2.028-1.623-4.463-2.028-6.897c-0.406-1.623-1.218-3.651-1.623-5.274c-0.812-4.057-1.217-8.521-1.217-12.983
				c0-17.852,7.303-33.675,18.663-45.44c11.36-11.767,27.59-18.664,45.441-18.664s33.675,7.304,45.441,18.664
				c11.766,11.766,18.663,27.589,18.663,45.44C402.885,332.695,395.583,348.518,384.222,360.284z"/>
			<path fill="#FFFFFF" d="M346.49,271.43c-0.812-0.812-2.029-1.623-3.651-2.434c-1.218-0.406-2.435-0.812-3.652-0.812
				c-0.405,0-0.405,0-0.405,0c-0.406,0-0.406,0-0.406,0c-1.217,0-2.434,0.405-3.651,0.812c-1.217,0.405-2.434,1.217-3.651,2.434
				l-25.155,25.155c-4.057,4.058-4.057,10.955,0,15.418c4.058,4.057,10.955,4.057,15.418,0l6.491-6.492v44.63
				c0,6.086,4.869,10.955,10.955,10.955s10.954-4.869,10.954-10.955v-44.63l6.492,6.492c4.057,4.057,10.954,4.057,15.417,0
				c4.058-4.058,4.058-10.955,0-15.418L346.49,271.43z"/>
		</g>
	</g>
</g>
</svg>
